<svg xmlns="http://www.w3.org/2000/svg" width="1040" height="420" viewBox="0 0 1040 420">
<defs><marker id="arrow" markerWidth="8" markerHeight="8" refX="7" refY="4" orient="auto"><path d="M0 0L8 4L0 8Z" fill="#3973b7"/></marker></defs>
<style>text{font-family:Arial;fill:#172033;font-size:14px}.box{fill:#eef3fa;stroke:#9eb4cf}.arrow{stroke:#3973b7;stroke-width:2;fill:none;marker-end:url(#arrow)}</style>
<rect width="100%" height="100%" fill="white"/>
<text x="25" y="35" style="font-size:22px;font-weight:bold">Implemented architecture screening dependencies</text>
<rect class="box" x="25" y="70" width="300" height="60"/><text x="40" y="95">Geometry / visibility / service assumptions</text><text x="40" y="116">and fixed payload RF output</text>
<rect class="box" x="25" y="220" width="300" height="60"/><text x="40" y="245">Fixed payload mass / constant DC demand</text><text x="40" y="266">and dwell / carrier assumptions</text>
<rect class="box" x="390" y="70" width="250" height="60"/><text x="405" y="95">Direct and relay connectivity</text><text x="405" y="116">Visibility gate + link margins</text>
<rect class="box" x="390" y="210" width="250" height="80"/><text x="405" y="234">Carrier mass-power-energy closure</text><text x="405" y="256">Analytical state + exploratory</text><text x="405" y="278">physical-boundary checks</text>
<rect class="box" x="735" y="145" width="280" height="90"/><text x="750" y="170">Hierarchical architecture classification</text><text x="750" y="192">Benefit / connectivity failure /</text><text x="750" y="214">finite exclusion / nonclosure</text>
<path class="arrow" d="M325 100H390"/><path class="arrow" d="M325 250H390"/>
<path class="arrow" d="M640 100H690V168H735"/><path class="arrow" d="M640 250H690V214H735"/>
<text x="25" y="335">Payload inputs are shared assumptions: link margin does not resize equipment or electrical demand.</text>
<text x="25" y="360">Altitude changes connectivity, not constant-density hover power. Numerical convergence is a diagnostic.</text>
<text x="25" y="385">Stationary, one-way screening; no full-mission or validated-aircraft feasibility claim.</text>
</svg>
