<svg xmlns="http://www.w3.org/2000/svg" width="890" height="610" viewBox="0 0 890 610" role="img" aria-labelledby="title desc">
<title id="title">Conditional payload-endurance feasibility region</title>
<desc id="desc">Generated deterministically by analysis/feasibility.py.</desc>
<style>text{font-family:Arial,sans-serif;fill:#172033}.axis{stroke:#607089;stroke-width:1}.grid{stroke:#d9e0ea;stroke-width:1}.label{font-size:12px}.small{font-size:12px}.title{font-size:18px;font-weight:700}</style>
<rect width="890" height="610" fill="#ffffff"/>
<text x="25" y="38" style="font-size:28px;font-weight:700">Exploratory Feasibility: Dwell vs Payload</text>
<text x="25" y="74" style="font-size:17px;font-weight:700">10–30 min includes feasible cases; 45–60 min is infeasible across the tested payload range.</text>
<text x="25" y="102" style="font-size:14px;fill:#536174">50 W payload demand · exploratory 10 kg / $2,500 boundaries · no hardware selected</text>
<text x="480.0" y="138" text-anchor="middle" style="font-size:16px;font-weight:700">Required on-station dwell</text>
<text x="136" y="160" text-anchor="end" style="font-size:14px;font-weight:700">Payload mass</text>
<text x="216.0" y="160" text-anchor="middle" style="font-size:14px;font-weight:700">10 min</text>
<text x="348.0" y="160" text-anchor="middle" style="font-size:14px;font-weight:700">20 min</text>
<text x="480.0" y="160" text-anchor="middle" style="font-size:14px;font-weight:700">30 min</text>
<text x="612.0" y="160" text-anchor="middle" style="font-size:14px;font-weight:700">45 min</text>
<text x="744.0" y="160" text-anchor="middle" style="font-size:14px;font-weight:700">60 min</text>
<text x="136" y="212.0" text-anchor="end" style="font-size:14px">0.25 kg</text>
<rect x="150" y="175" width="129" height="61" rx="5" fill="#2f9e68" stroke="#247a52" stroke-width="2"/>
<text x="216.0" y="202" text-anchor="middle" style="font-size:12px;font-weight:700;fill:#ffffff">FEASIBLE</text>
<text x="216.0" y="223" text-anchor="middle" style="font-size:12px;fill:#ffffff">3.9 kg gross</text>
<rect x="282" y="175" width="129" height="61" rx="5" fill="#2f9e68" stroke="#247a52" stroke-width="2"/>
<text x="348.0" y="202" text-anchor="middle" style="font-size:12px;font-weight:700;fill:#ffffff">FEASIBLE</text>
<text x="348.0" y="223" text-anchor="middle" style="font-size:12px;fill:#ffffff">3.9 kg gross</text>
<rect x="414" y="175" width="129" height="61" rx="5" fill="#2f9e68" stroke="#247a52" stroke-width="2"/>
<text x="480.0" y="202" text-anchor="middle" style="font-size:12px;font-weight:700;fill:#ffffff">FEASIBLE</text>
<text x="480.0" y="223" text-anchor="middle" style="font-size:12px;fill:#ffffff">5.5 kg gross</text>
<rect x="546" y="175" width="129" height="61" rx="5" fill="#c95757" stroke="#9f2d2d" stroke-width="3"/>
<text x="612.0" y="202" text-anchor="middle" style="font-size:12px;font-weight:700;fill:#ffffff">INFEASIBLE</text>
<text x="612.0" y="223" text-anchor="middle" style="font-size:12px;fill:#ffffff">17.9 kg gross</text>
<rect x="678" y="175" width="129" height="61" rx="5" fill="#c95757" stroke="#9f2d2d" stroke-width="3"/>
<text x="744.0" y="202" text-anchor="middle" style="font-size:12px;font-weight:700;fill:#ffffff">INFEASIBLE</text>
<text x="744.0" y="223" text-anchor="middle" style="font-size:12px;fill:#ffffff">NONCLOSURE</text>
<text x="136" y="276.0" text-anchor="end" style="font-size:14px">0.5 kg</text>
<rect x="150" y="239" width="129" height="61" rx="5" fill="#2f9e68" stroke="#247a52" stroke-width="2"/>
<text x="216.0" y="266" text-anchor="middle" style="font-size:12px;font-weight:700;fill:#ffffff">FEASIBLE</text>
<text x="216.0" y="287" text-anchor="middle" style="font-size:12px;fill:#ffffff">4.7 kg gross</text>
<rect x="282" y="239" width="129" height="61" rx="5" fill="#2f9e68" stroke="#247a52" stroke-width="2"/>
<text x="348.0" y="266" text-anchor="middle" style="font-size:12px;font-weight:700;fill:#ffffff">FEASIBLE</text>
<text x="348.0" y="287" text-anchor="middle" style="font-size:12px;fill:#ffffff">4.7 kg gross</text>
<rect x="414" y="239" width="129" height="61" rx="5" fill="#2f9e68" stroke="#247a52" stroke-width="2"/>
<text x="480.0" y="266" text-anchor="middle" style="font-size:12px;font-weight:700;fill:#ffffff">FEASIBLE</text>
<text x="480.0" y="287" text-anchor="middle" style="font-size:12px;fill:#ffffff">6.5 kg gross</text>
<rect x="546" y="239" width="129" height="61" rx="5" fill="#c95757" stroke="#9f2d2d" stroke-width="3"/>
<text x="612.0" y="266" text-anchor="middle" style="font-size:12px;font-weight:700;fill:#ffffff">INFEASIBLE</text>
<text x="612.0" y="287" text-anchor="middle" style="font-size:12px;fill:#ffffff">21.0 kg gross</text>
<rect x="678" y="239" width="129" height="61" rx="5" fill="#c95757" stroke="#9f2d2d" stroke-width="3"/>
<text x="744.0" y="266" text-anchor="middle" style="font-size:12px;font-weight:700;fill:#ffffff">INFEASIBLE</text>
<text x="744.0" y="287" text-anchor="middle" style="font-size:12px;fill:#ffffff">NONCLOSURE</text>
<text x="136" y="340.0" text-anchor="end" style="font-size:14px">1 kg</text>
<rect x="150" y="303" width="129" height="61" rx="5" fill="#2f9e68" stroke="#247a52" stroke-width="2"/>
<text x="216.0" y="330" text-anchor="middle" style="font-size:12px;font-weight:700;fill:#ffffff">FEASIBLE</text>
<text x="216.0" y="351" text-anchor="middle" style="font-size:12px;fill:#ffffff">6.3 kg gross</text>
<rect x="282" y="303" width="129" height="61" rx="5" fill="#2f9e68" stroke="#247a52" stroke-width="2"/>
<text x="348.0" y="330" text-anchor="middle" style="font-size:12px;font-weight:700;fill:#ffffff">FEASIBLE</text>
<text x="348.0" y="351" text-anchor="middle" style="font-size:12px;fill:#ffffff">6.3 kg gross</text>
<rect x="414" y="303" width="129" height="61" rx="5" fill="#2f9e68" stroke="#247a52" stroke-width="2"/>
<text x="480.0" y="330" text-anchor="middle" style="font-size:12px;font-weight:700;fill:#ffffff">FEASIBLE</text>
<text x="480.0" y="351" text-anchor="middle" style="font-size:12px;fill:#ffffff">8.5 kg gross</text>
<rect x="546" y="303" width="129" height="61" rx="5" fill="#c95757" stroke="#9f2d2d" stroke-width="3"/>
<text x="612.0" y="330" text-anchor="middle" style="font-size:12px;font-weight:700;fill:#ffffff">INFEASIBLE</text>
<text x="612.0" y="351" text-anchor="middle" style="font-size:12px;fill:#ffffff">27.0 kg gross</text>
<rect x="678" y="303" width="129" height="61" rx="5" fill="#c95757" stroke="#9f2d2d" stroke-width="3"/>
<text x="744.0" y="330" text-anchor="middle" style="font-size:12px;font-weight:700;fill:#ffffff">INFEASIBLE</text>
<text x="744.0" y="351" text-anchor="middle" style="font-size:12px;fill:#ffffff">NONCLOSURE</text>
<text x="136" y="404.0" text-anchor="end" style="font-size:14px">1.5 kg</text>
<rect x="150" y="367" width="129" height="61" rx="5" fill="#2f9e68" stroke="#247a52" stroke-width="2"/>
<text x="216.0" y="394" text-anchor="middle" style="font-size:12px;font-weight:700;fill:#ffffff">FEASIBLE</text>
<text x="216.0" y="415" text-anchor="middle" style="font-size:12px;fill:#ffffff">7.9 kg gross</text>
<rect x="282" y="367" width="129" height="61" rx="5" fill="#2f9e68" stroke="#247a52" stroke-width="2"/>
<text x="348.0" y="394" text-anchor="middle" style="font-size:12px;font-weight:700;fill:#ffffff">FEASIBLE</text>
<text x="348.0" y="415" text-anchor="middle" style="font-size:12px;fill:#ffffff">7.9 kg gross</text>
<rect x="414" y="367" width="129" height="61" rx="5" fill="#e6a43a" stroke="#8a5b00" stroke-width="2" stroke-dasharray="7 4"/>
<text x="480.0" y="394" text-anchor="middle" style="font-size:12px;font-weight:700;fill:#172033">MARGINAL</text>
<text x="480.0" y="415" text-anchor="middle" style="font-size:12px;fill:#172033">10.5 kg gross</text>
<rect x="546" y="367" width="129" height="61" rx="5" fill="#c95757" stroke="#9f2d2d" stroke-width="3"/>
<text x="612.0" y="394" text-anchor="middle" style="font-size:12px;font-weight:700;fill:#ffffff">INFEASIBLE</text>
<text x="612.0" y="415" text-anchor="middle" style="font-size:12px;fill:#ffffff">33.1 kg gross</text>
<rect x="678" y="367" width="129" height="61" rx="5" fill="#c95757" stroke="#9f2d2d" stroke-width="3"/>
<text x="744.0" y="394" text-anchor="middle" style="font-size:12px;font-weight:700;fill:#ffffff">INFEASIBLE</text>
<text x="744.0" y="415" text-anchor="middle" style="font-size:12px;fill:#ffffff">NONCLOSURE</text>
<text x="136" y="468.0" text-anchor="end" style="font-size:14px">2 kg</text>
<rect x="150" y="431" width="129" height="61" rx="5" fill="#e6a43a" stroke="#8a5b00" stroke-width="2" stroke-dasharray="7 4"/>
<text x="216.0" y="458" text-anchor="middle" style="font-size:12px;font-weight:700;fill:#172033">MARGINAL</text>
<text x="216.0" y="479" text-anchor="middle" style="font-size:12px;fill:#172033">9.6 kg gross</text>
<rect x="282" y="431" width="129" height="61" rx="5" fill="#e6a43a" stroke="#8a5b00" stroke-width="2" stroke-dasharray="7 4"/>
<text x="348.0" y="458" text-anchor="middle" style="font-size:12px;font-weight:700;fill:#172033">MARGINAL</text>
<text x="348.0" y="479" text-anchor="middle" style="font-size:12px;fill:#172033">9.6 kg gross</text>
<rect x="414" y="431" width="129" height="61" rx="5" fill="#e6a43a" stroke="#8a5b00" stroke-width="2" stroke-dasharray="7 4"/>
<text x="480.0" y="458" text-anchor="middle" style="font-size:12px;font-weight:700;fill:#172033">MARGINAL</text>
<text x="480.0" y="479" text-anchor="middle" style="font-size:12px;fill:#172033">12.5 kg gross</text>
<rect x="546" y="431" width="129" height="61" rx="5" fill="#c95757" stroke="#9f2d2d" stroke-width="3"/>
<text x="612.0" y="458" text-anchor="middle" style="font-size:12px;font-weight:700;fill:#ffffff">INFEASIBLE</text>
<text x="612.0" y="479" text-anchor="middle" style="font-size:12px;fill:#ffffff">39.2 kg gross</text>
<rect x="678" y="431" width="129" height="61" rx="5" fill="#c95757" stroke="#9f2d2d" stroke-width="3"/>
<text x="744.0" y="458" text-anchor="middle" style="font-size:12px;font-weight:700;fill:#ffffff">INFEASIBLE</text>
<text x="744.0" y="479" text-anchor="middle" style="font-size:12px;fill:#ffffff">NONCLOSURE</text>
<text x="25" y="546" style="font-size:13px;font-weight:700">Cells show conditional class and finite analytical gross mass; nonclosures have no finite model state.</text>
<text x="25" y="570" style="font-size:13px">Solid = feasible · dashed = marginal · heavy border = infeasible.</text>
<text x="25" y="592" style="font-size:13px;fill:#536174">Owner requirements remain undecided; this is an exploratory design-space result.</text>
</svg>
